<mxfile host="app.diagrams.net" modified="2024-04-22T22:40:44.794Z" agent="Mozilla/5.0 (Windows NT 10.0; Win64; x64) AppleWebKit/537.36 (KHTML, like Gecko) Chrome/123.0.0.0 Safari/537.36" etag="mjm34BqFGWDMV62vNGn3" version="24.2.5" type="device">
  <diagram name="Page-1" id="2YBvvXClWsGukQMizWep">
    <mxGraphModel dx="1153" dy="1073" grid="1" gridSize="10" guides="1" tooltips="1" connect="1" arrows="1" fold="1" page="1" pageScale="1" pageWidth="850" pageHeight="1100" math="0" shadow="0">
      <root>
        <mxCell id="0" />
        <mxCell id="1" parent="0" />
        <mxCell id="aM9ryv3xv72pqoxQDRHE-1" value=":Usuario" style="shape=umlLifeline;perimeter=lifelinePerimeter;whiteSpace=wrap;html=1;container=0;dropTarget=0;collapsible=0;recursiveResize=0;outlineConnect=0;portConstraint=eastwest;newEdgeStyle={&quot;edgeStyle&quot;:&quot;elbowEdgeStyle&quot;,&quot;elbow&quot;:&quot;vertical&quot;,&quot;curved&quot;:0,&quot;rounded&quot;:0};" parent="1" vertex="1">
          <mxGeometry x="10" y="38" width="100" height="242" as="geometry" />
        </mxCell>
        <mxCell id="aM9ryv3xv72pqoxQDRHE-2" value="" style="html=1;points=[];perimeter=orthogonalPerimeter;outlineConnect=0;targetShapes=umlLifeline;portConstraint=eastwest;newEdgeStyle={&quot;edgeStyle&quot;:&quot;elbowEdgeStyle&quot;,&quot;elbow&quot;:&quot;vertical&quot;,&quot;curved&quot;:0,&quot;rounded&quot;:0};" parent="aM9ryv3xv72pqoxQDRHE-1" vertex="1">
          <mxGeometry x="45" y="70" width="10" height="130" as="geometry" />
        </mxCell>
        <mxCell id="aM9ryv3xv72pqoxQDRHE-5" value=":Bibliotecario" style="shape=umlLifeline;perimeter=lifelinePerimeter;whiteSpace=wrap;html=1;container=0;dropTarget=0;collapsible=0;recursiveResize=0;outlineConnect=0;portConstraint=eastwest;newEdgeStyle={&quot;edgeStyle&quot;:&quot;elbowEdgeStyle&quot;,&quot;elbow&quot;:&quot;vertical&quot;,&quot;curved&quot;:0,&quot;rounded&quot;:0};" parent="1" vertex="1">
          <mxGeometry x="160" y="38" width="100" height="262" as="geometry" />
        </mxCell>
        <mxCell id="aM9ryv3xv72pqoxQDRHE-6" value="" style="html=1;points=[];perimeter=orthogonalPerimeter;outlineConnect=0;targetShapes=umlLifeline;portConstraint=eastwest;newEdgeStyle={&quot;edgeStyle&quot;:&quot;elbowEdgeStyle&quot;,&quot;elbow&quot;:&quot;vertical&quot;,&quot;curved&quot;:0,&quot;rounded&quot;:0};" parent="aM9ryv3xv72pqoxQDRHE-5" vertex="1">
          <mxGeometry x="45" y="80" width="10" height="130" as="geometry" />
        </mxCell>
        <mxCell id="aM9ryv3xv72pqoxQDRHE-7" value="Registrar_usuario()" style="html=1;verticalAlign=bottom;endArrow=block;edgeStyle=elbowEdgeStyle;elbow=vertical;curved=0;rounded=0;" parent="1" source="aM9ryv3xv72pqoxQDRHE-2" target="aM9ryv3xv72pqoxQDRHE-6" edge="1">
          <mxGeometry relative="1" as="geometry">
            <mxPoint x="195" y="130" as="sourcePoint" />
            <Array as="points">
              <mxPoint x="180" y="120" />
            </Array>
          </mxGeometry>
        </mxCell>
        <mxCell id="aM9ryv3xv72pqoxQDRHE-9" value="" style="html=1;verticalAlign=bottom;endArrow=block;edgeStyle=elbowEdgeStyle;elbow=vertical;curved=0;rounded=0;" parent="1" source="aM9ryv3xv72pqoxQDRHE-6" target="aM9ryv3xv72pqoxQDRHE-2" edge="1">
          <mxGeometry relative="1" as="geometry">
            <mxPoint x="175" y="160" as="sourcePoint" />
            <Array as="points">
              <mxPoint x="190" y="160" />
            </Array>
            <mxPoint x="330" y="210" as="targetPoint" />
          </mxGeometry>
        </mxCell>
        <mxCell id="fPuLMsQg-bs6Kj8-OiQH-5" value=":Bibliotecario" style="shape=umlLifeline;perimeter=lifelinePerimeter;whiteSpace=wrap;html=1;container=0;dropTarget=0;collapsible=0;recursiveResize=0;outlineConnect=0;portConstraint=eastwest;newEdgeStyle={&quot;edgeStyle&quot;:&quot;elbowEdgeStyle&quot;,&quot;elbow&quot;:&quot;vertical&quot;,&quot;curved&quot;:0,&quot;rounded&quot;:0};" vertex="1" parent="1">
          <mxGeometry x="645" y="40" width="100" height="300" as="geometry" />
        </mxCell>
        <mxCell id="fPuLMsQg-bs6Kj8-OiQH-6" value="" style="html=1;points=[];perimeter=orthogonalPerimeter;outlineConnect=0;targetShapes=umlLifeline;portConstraint=eastwest;newEdgeStyle={&quot;edgeStyle&quot;:&quot;elbowEdgeStyle&quot;,&quot;elbow&quot;:&quot;vertical&quot;,&quot;curved&quot;:0,&quot;rounded&quot;:0};" vertex="1" parent="fPuLMsQg-bs6Kj8-OiQH-5">
          <mxGeometry x="45" y="80" width="10" height="170" as="geometry" />
        </mxCell>
        <mxCell id="fPuLMsQg-bs6Kj8-OiQH-7" value="Renovar_membrecia(id_socio)" style="html=1;verticalAlign=bottom;endArrow=block;edgeStyle=elbowEdgeStyle;elbow=vertical;curved=0;rounded=0;" edge="1" parent="1" source="fPuLMsQg-bs6Kj8-OiQH-62" target="fPuLMsQg-bs6Kj8-OiQH-6">
          <mxGeometry relative="1" as="geometry">
            <mxPoint x="590" y="120" as="sourcePoint" />
            <Array as="points">
              <mxPoint x="645" y="120" />
            </Array>
          </mxGeometry>
        </mxCell>
        <mxCell id="fPuLMsQg-bs6Kj8-OiQH-8" value="Mensje (Fecha membrecia)" style="html=1;verticalAlign=bottom;endArrow=open;dashed=1;endSize=8;edgeStyle=elbowEdgeStyle;elbow=vertical;curved=0;rounded=0;" edge="1" parent="1" target="fPuLMsQg-bs6Kj8-OiQH-62">
          <mxGeometry relative="1" as="geometry">
            <mxPoint x="564.6666666666665" y="220" as="targetPoint" />
            <Array as="points">
              <mxPoint x="655" y="220" />
            </Array>
            <mxPoint x="690" y="220" as="sourcePoint" />
          </mxGeometry>
        </mxCell>
        <mxCell id="fPuLMsQg-bs6Kj8-OiQH-11" value="Libro" style="shape=umlLifeline;perimeter=lifelinePerimeter;whiteSpace=wrap;html=1;container=0;dropTarget=0;collapsible=0;recursiveResize=0;outlineConnect=0;portConstraint=eastwest;newEdgeStyle={&quot;edgeStyle&quot;:&quot;elbowEdgeStyle&quot;,&quot;elbow&quot;:&quot;vertical&quot;,&quot;curved&quot;:0,&quot;rounded&quot;:0};" vertex="1" parent="1">
          <mxGeometry x="30" y="440" width="100" height="300" as="geometry" />
        </mxCell>
        <mxCell id="fPuLMsQg-bs6Kj8-OiQH-12" value="" style="html=1;points=[];perimeter=orthogonalPerimeter;outlineConnect=0;targetShapes=umlLifeline;portConstraint=eastwest;newEdgeStyle={&quot;edgeStyle&quot;:&quot;elbowEdgeStyle&quot;,&quot;elbow&quot;:&quot;vertical&quot;,&quot;curved&quot;:0,&quot;rounded&quot;:0};" vertex="1" parent="fPuLMsQg-bs6Kj8-OiQH-11">
          <mxGeometry x="45" y="70" width="10" height="190" as="geometry" />
        </mxCell>
        <mxCell id="fPuLMsQg-bs6Kj8-OiQH-15" value=":Bibliotecario" style="shape=umlLifeline;perimeter=lifelinePerimeter;whiteSpace=wrap;html=1;container=0;dropTarget=0;collapsible=0;recursiveResize=0;outlineConnect=0;portConstraint=eastwest;newEdgeStyle={&quot;edgeStyle&quot;:&quot;elbowEdgeStyle&quot;,&quot;elbow&quot;:&quot;vertical&quot;,&quot;curved&quot;:0,&quot;rounded&quot;:0};" vertex="1" parent="1">
          <mxGeometry x="210" y="440" width="100" height="300" as="geometry" />
        </mxCell>
        <mxCell id="fPuLMsQg-bs6Kj8-OiQH-16" value="" style="html=1;points=[];perimeter=orthogonalPerimeter;outlineConnect=0;targetShapes=umlLifeline;portConstraint=eastwest;newEdgeStyle={&quot;edgeStyle&quot;:&quot;elbowEdgeStyle&quot;,&quot;elbow&quot;:&quot;vertical&quot;,&quot;curved&quot;:0,&quot;rounded&quot;:0};" vertex="1" parent="fPuLMsQg-bs6Kj8-OiQH-15">
          <mxGeometry x="45" y="80" width="10" height="170" as="geometry" />
        </mxCell>
        <mxCell id="fPuLMsQg-bs6Kj8-OiQH-17" value="Registrar_libro(isbn,genero ,etc)" style="html=1;verticalAlign=bottom;endArrow=block;edgeStyle=elbowEdgeStyle;elbow=vertical;curved=0;rounded=0;" edge="1" parent="1" source="fPuLMsQg-bs6Kj8-OiQH-12" target="fPuLMsQg-bs6Kj8-OiQH-16">
          <mxGeometry relative="1" as="geometry">
            <mxPoint x="185" y="530" as="sourcePoint" />
            <Array as="points">
              <mxPoint x="170" y="520" />
            </Array>
            <mxPoint as="offset" />
          </mxGeometry>
        </mxCell>
        <mxCell id="fPuLMsQg-bs6Kj8-OiQH-18" value="Guardar_libro" style="html=1;verticalAlign=bottom;endArrow=open;dashed=1;endSize=8;edgeStyle=elbowEdgeStyle;elbow=vertical;curved=0;rounded=0;" edge="1" parent="1">
          <mxGeometry relative="1" as="geometry">
            <mxPoint x="80" y="560" as="targetPoint" />
            <Array as="points">
              <mxPoint x="175" y="560" />
            </Array>
            <mxPoint x="250" y="560" as="sourcePoint" />
            <mxPoint as="offset" />
          </mxGeometry>
        </mxCell>
        <mxCell id="fPuLMsQg-bs6Kj8-OiQH-19" value="estante(Numero)" style="html=1;verticalAlign=bottom;endArrow=block;edgeStyle=elbowEdgeStyle;elbow=vertical;curved=0;rounded=0;" edge="1" parent="1">
          <mxGeometry relative="1" as="geometry">
            <mxPoint x="425" y="560" as="sourcePoint" />
            <Array as="points">
              <mxPoint x="350" y="560" />
            </Array>
            <mxPoint x="260" y="560" as="targetPoint" />
          </mxGeometry>
        </mxCell>
        <mxCell id="fPuLMsQg-bs6Kj8-OiQH-39" value=":Sistema" style="shape=umlLifeline;perimeter=lifelinePerimeter;whiteSpace=wrap;html=1;container=0;dropTarget=0;collapsible=0;recursiveResize=0;outlineConnect=0;portConstraint=eastwest;newEdgeStyle={&quot;edgeStyle&quot;:&quot;elbowEdgeStyle&quot;,&quot;elbow&quot;:&quot;vertical&quot;,&quot;curved&quot;:0,&quot;rounded&quot;:0};" vertex="1" parent="1">
          <mxGeometry x="785" y="40" width="100" height="300" as="geometry" />
        </mxCell>
        <mxCell id="fPuLMsQg-bs6Kj8-OiQH-40" value="" style="html=1;points=[];perimeter=orthogonalPerimeter;outlineConnect=0;targetShapes=umlLifeline;portConstraint=eastwest;newEdgeStyle={&quot;edgeStyle&quot;:&quot;elbowEdgeStyle&quot;,&quot;elbow&quot;:&quot;vertical&quot;,&quot;curved&quot;:0,&quot;rounded&quot;:0};" vertex="1" parent="fPuLMsQg-bs6Kj8-OiQH-39">
          <mxGeometry x="45" y="80" width="10" height="170" as="geometry" />
        </mxCell>
        <mxCell id="fPuLMsQg-bs6Kj8-OiQH-41" value="Check_status(id_socio)" style="html=1;verticalAlign=bottom;endArrow=block;edgeStyle=elbowEdgeStyle;elbow=vertical;curved=0;rounded=0;" edge="1" parent="1" source="fPuLMsQg-bs6Kj8-OiQH-6" target="fPuLMsQg-bs6Kj8-OiQH-39">
          <mxGeometry x="-0.1078" y="10" relative="1" as="geometry">
            <mxPoint x="705" y="124.71" as="sourcePoint" />
            <Array as="points">
              <mxPoint x="755" y="120" />
            </Array>
            <mxPoint x="835" y="124.71" as="targetPoint" />
            <mxPoint as="offset" />
          </mxGeometry>
        </mxCell>
        <mxCell id="fPuLMsQg-bs6Kj8-OiQH-43" value="Status(id_socio)" style="html=1;verticalAlign=bottom;endArrow=open;dashed=1;endSize=8;edgeStyle=elbowEdgeStyle;elbow=vertical;curved=0;rounded=0;" edge="1" parent="1">
          <mxGeometry relative="1" as="geometry">
            <mxPoint x="700" y="160" as="targetPoint" />
            <Array as="points">
              <mxPoint x="795" y="160" />
            </Array>
            <mxPoint x="830" y="160" as="sourcePoint" />
          </mxGeometry>
        </mxCell>
        <mxCell id="fPuLMsQg-bs6Kj8-OiQH-44" style="edgeStyle=elbowEdgeStyle;rounded=0;orthogonalLoop=1;jettySize=auto;html=1;elbow=vertical;curved=0;" edge="1" parent="1">
          <mxGeometry relative="1" as="geometry">
            <mxPoint x="700" y="189.7171428571429" as="sourcePoint" />
            <mxPoint x="834.5" y="189.7171428571429" as="targetPoint" />
          </mxGeometry>
        </mxCell>
        <mxCell id="fPuLMsQg-bs6Kj8-OiQH-45" value="&lt;span style=&quot;color: rgb(0, 0, 0); font-family: Helvetica; font-size: 11px; font-style: normal; font-variant-ligatures: normal; font-variant-caps: normal; font-weight: 400; letter-spacing: normal; orphans: 2; text-align: center; text-indent: 0px; text-transform: none; widows: 2; word-spacing: 0px; -webkit-text-stroke-width: 0px; white-space: nowrap; background-color: rgb(255, 255, 255); text-decoration-thickness: initial; text-decoration-style: initial; text-decoration-color: initial; display: inline !important; float: none;&quot;&gt;Actualizar_estado&lt;/span&gt;" style="text;whiteSpace=wrap;html=1;" vertex="1" parent="1">
          <mxGeometry x="700" y="168" width="140" height="40" as="geometry" />
        </mxCell>
        <mxCell id="fPuLMsQg-bs6Kj8-OiQH-46" value=":Sistema" style="shape=umlLifeline;perimeter=lifelinePerimeter;whiteSpace=wrap;html=1;container=0;dropTarget=0;collapsible=0;recursiveResize=0;outlineConnect=0;portConstraint=eastwest;newEdgeStyle={&quot;edgeStyle&quot;:&quot;elbowEdgeStyle&quot;,&quot;elbow&quot;:&quot;vertical&quot;,&quot;curved&quot;:0,&quot;rounded&quot;:0};" vertex="1" parent="1">
          <mxGeometry x="380" y="440" width="100" height="300" as="geometry" />
        </mxCell>
        <mxCell id="fPuLMsQg-bs6Kj8-OiQH-47" value="" style="html=1;points=[];perimeter=orthogonalPerimeter;outlineConnect=0;targetShapes=umlLifeline;portConstraint=eastwest;newEdgeStyle={&quot;edgeStyle&quot;:&quot;elbowEdgeStyle&quot;,&quot;elbow&quot;:&quot;vertical&quot;,&quot;curved&quot;:0,&quot;rounded&quot;:0};" vertex="1" parent="fPuLMsQg-bs6Kj8-OiQH-46">
          <mxGeometry x="45" y="80" width="10" height="170" as="geometry" />
        </mxCell>
        <mxCell id="fPuLMsQg-bs6Kj8-OiQH-48" value=":Usuario" style="shape=umlLifeline;perimeter=lifelinePerimeter;whiteSpace=wrap;html=1;container=0;dropTarget=0;collapsible=0;recursiveResize=0;outlineConnect=0;portConstraint=eastwest;newEdgeStyle={&quot;edgeStyle&quot;:&quot;elbowEdgeStyle&quot;,&quot;elbow&quot;:&quot;vertical&quot;,&quot;curved&quot;:0,&quot;rounded&quot;:0};" vertex="1" parent="1">
          <mxGeometry x="540" y="450" width="100" height="300" as="geometry" />
        </mxCell>
        <mxCell id="fPuLMsQg-bs6Kj8-OiQH-49" value="" style="html=1;points=[];perimeter=orthogonalPerimeter;outlineConnect=0;targetShapes=umlLifeline;portConstraint=eastwest;newEdgeStyle={&quot;edgeStyle&quot;:&quot;elbowEdgeStyle&quot;,&quot;elbow&quot;:&quot;vertical&quot;,&quot;curved&quot;:0,&quot;rounded&quot;:0};" vertex="1" parent="fPuLMsQg-bs6Kj8-OiQH-48">
          <mxGeometry x="45" y="70" width="10" height="190" as="geometry" />
        </mxCell>
        <mxCell id="fPuLMsQg-bs6Kj8-OiQH-50" value=":Bibliotecario" style="shape=umlLifeline;perimeter=lifelinePerimeter;whiteSpace=wrap;html=1;container=0;dropTarget=0;collapsible=0;recursiveResize=0;outlineConnect=0;portConstraint=eastwest;newEdgeStyle={&quot;edgeStyle&quot;:&quot;elbowEdgeStyle&quot;,&quot;elbow&quot;:&quot;vertical&quot;,&quot;curved&quot;:0,&quot;rounded&quot;:0};" vertex="1" parent="1">
          <mxGeometry x="690" y="450" width="100" height="300" as="geometry" />
        </mxCell>
        <mxCell id="fPuLMsQg-bs6Kj8-OiQH-51" value="" style="html=1;points=[];perimeter=orthogonalPerimeter;outlineConnect=0;targetShapes=umlLifeline;portConstraint=eastwest;newEdgeStyle={&quot;edgeStyle&quot;:&quot;elbowEdgeStyle&quot;,&quot;elbow&quot;:&quot;vertical&quot;,&quot;curved&quot;:0,&quot;rounded&quot;:0};" vertex="1" parent="fPuLMsQg-bs6Kj8-OiQH-50">
          <mxGeometry x="45" y="80" width="10" height="170" as="geometry" />
        </mxCell>
        <mxCell id="fPuLMsQg-bs6Kj8-OiQH-52" value="solicitar_prestamo(libro)" style="html=1;verticalAlign=bottom;endArrow=block;edgeStyle=elbowEdgeStyle;elbow=vertical;curved=0;rounded=0;" edge="1" parent="1" source="fPuLMsQg-bs6Kj8-OiQH-49" target="fPuLMsQg-bs6Kj8-OiQH-51">
          <mxGeometry relative="1" as="geometry">
            <mxPoint x="705" y="540" as="sourcePoint" />
            <Array as="points">
              <mxPoint x="690" y="530" />
            </Array>
          </mxGeometry>
        </mxCell>
        <mxCell id="fPuLMsQg-bs6Kj8-OiQH-54" value=":Sistema" style="shape=umlLifeline;perimeter=lifelinePerimeter;whiteSpace=wrap;html=1;container=0;dropTarget=0;collapsible=0;recursiveResize=0;outlineConnect=0;portConstraint=eastwest;newEdgeStyle={&quot;edgeStyle&quot;:&quot;elbowEdgeStyle&quot;,&quot;elbow&quot;:&quot;vertical&quot;,&quot;curved&quot;:0,&quot;rounded&quot;:0};" vertex="1" parent="1">
          <mxGeometry x="850" y="450" width="100" height="300" as="geometry" />
        </mxCell>
        <mxCell id="fPuLMsQg-bs6Kj8-OiQH-55" value="" style="html=1;points=[];perimeter=orthogonalPerimeter;outlineConnect=0;targetShapes=umlLifeline;portConstraint=eastwest;newEdgeStyle={&quot;edgeStyle&quot;:&quot;elbowEdgeStyle&quot;,&quot;elbow&quot;:&quot;vertical&quot;,&quot;curved&quot;:0,&quot;rounded&quot;:0};" vertex="1" parent="fPuLMsQg-bs6Kj8-OiQH-54">
          <mxGeometry x="45" y="80" width="10" height="170" as="geometry" />
        </mxCell>
        <mxCell id="fPuLMsQg-bs6Kj8-OiQH-56" value="Check_status(libro)" style="html=1;verticalAlign=bottom;endArrow=block;edgeStyle=elbowEdgeStyle;elbow=vertical;curved=0;rounded=0;" edge="1" parent="1" source="fPuLMsQg-bs6Kj8-OiQH-51" target="fPuLMsQg-bs6Kj8-OiQH-54">
          <mxGeometry x="-0.2308" y="5" relative="1" as="geometry">
            <mxPoint x="750" y="534.71" as="sourcePoint" />
            <Array as="points">
              <mxPoint x="800" y="530" />
            </Array>
            <mxPoint x="880" y="534.71" as="targetPoint" />
            <mxPoint as="offset" />
          </mxGeometry>
        </mxCell>
        <mxCell id="fPuLMsQg-bs6Kj8-OiQH-57" value="Status(libro)" style="html=1;verticalAlign=bottom;endArrow=open;dashed=1;endSize=8;edgeStyle=elbowEdgeStyle;elbow=vertical;curved=0;rounded=0;" edge="1" parent="1" source="fPuLMsQg-bs6Kj8-OiQH-54">
          <mxGeometry relative="1" as="geometry">
            <mxPoint x="745" y="560" as="targetPoint" />
            <Array as="points">
              <mxPoint x="840" y="560" />
            </Array>
            <mxPoint x="875" y="560" as="sourcePoint" />
          </mxGeometry>
        </mxCell>
        <mxCell id="fPuLMsQg-bs6Kj8-OiQH-58" style="edgeStyle=elbowEdgeStyle;rounded=0;orthogonalLoop=1;jettySize=auto;html=1;elbow=vertical;curved=0;" edge="1" parent="1">
          <mxGeometry relative="1" as="geometry">
            <mxPoint x="745" y="655" as="sourcePoint" />
            <mxPoint x="589.6666666666665" y="665" as="targetPoint" />
            <Array as="points">
              <mxPoint x="725.5" y="665" />
            </Array>
          </mxGeometry>
        </mxCell>
        <mxCell id="fPuLMsQg-bs6Kj8-OiQH-60" value=":Sistema" style="shape=umlLifeline;perimeter=lifelinePerimeter;whiteSpace=wrap;html=1;container=0;dropTarget=0;collapsible=0;recursiveResize=0;outlineConnect=0;portConstraint=eastwest;newEdgeStyle={&quot;edgeStyle&quot;:&quot;elbowEdgeStyle&quot;,&quot;elbow&quot;:&quot;vertical&quot;,&quot;curved&quot;:0,&quot;rounded&quot;:0};" vertex="1" parent="1">
          <mxGeometry x="310" y="38" width="100" height="300" as="geometry" />
        </mxCell>
        <mxCell id="fPuLMsQg-bs6Kj8-OiQH-61" value="" style="html=1;points=[];perimeter=orthogonalPerimeter;outlineConnect=0;targetShapes=umlLifeline;portConstraint=eastwest;newEdgeStyle={&quot;edgeStyle&quot;:&quot;elbowEdgeStyle&quot;,&quot;elbow&quot;:&quot;vertical&quot;,&quot;curved&quot;:0,&quot;rounded&quot;:0};" vertex="1" parent="fPuLMsQg-bs6Kj8-OiQH-60">
          <mxGeometry x="45" y="80" width="10" height="170" as="geometry" />
        </mxCell>
        <mxCell id="fPuLMsQg-bs6Kj8-OiQH-62" value=":Usuario" style="shape=umlLifeline;perimeter=lifelinePerimeter;whiteSpace=wrap;html=1;container=0;dropTarget=0;collapsible=0;recursiveResize=0;outlineConnect=0;portConstraint=eastwest;newEdgeStyle={&quot;edgeStyle&quot;:&quot;elbowEdgeStyle&quot;,&quot;elbow&quot;:&quot;vertical&quot;,&quot;curved&quot;:0,&quot;rounded&quot;:0};" vertex="1" parent="1">
          <mxGeometry x="470" y="38" width="100" height="300" as="geometry" />
        </mxCell>
        <mxCell id="fPuLMsQg-bs6Kj8-OiQH-63" value="" style="html=1;points=[];perimeter=orthogonalPerimeter;outlineConnect=0;targetShapes=umlLifeline;portConstraint=eastwest;newEdgeStyle={&quot;edgeStyle&quot;:&quot;elbowEdgeStyle&quot;,&quot;elbow&quot;:&quot;vertical&quot;,&quot;curved&quot;:0,&quot;rounded&quot;:0};" vertex="1" parent="fPuLMsQg-bs6Kj8-OiQH-62">
          <mxGeometry x="45" y="62" width="10" height="190" as="geometry" />
        </mxCell>
        <mxCell id="fPuLMsQg-bs6Kj8-OiQH-64" value="Actualizacion_Sistema" style="html=1;verticalAlign=bottom;endArrow=block;edgeStyle=elbowEdgeStyle;elbow=vertical;curved=0;rounded=0;" edge="1" parent="1" target="fPuLMsQg-bs6Kj8-OiQH-60">
          <mxGeometry relative="1" as="geometry">
            <mxPoint x="220" y="122.58" as="sourcePoint" />
            <Array as="points">
              <mxPoint x="335" y="122.58" />
            </Array>
            <mxPoint x="330" y="123" as="targetPoint" />
          </mxGeometry>
        </mxCell>
        <mxCell id="fPuLMsQg-bs6Kj8-OiQH-65" value="Solicitud _datos()" style="html=1;verticalAlign=bottom;endArrow=block;edgeStyle=elbowEdgeStyle;elbow=vertical;curved=0;rounded=0;" edge="1" parent="1" source="fPuLMsQg-bs6Kj8-OiQH-60">
          <mxGeometry relative="1" as="geometry">
            <mxPoint x="340" y="160" as="sourcePoint" />
            <Array as="points">
              <mxPoint x="310" y="160" />
            </Array>
            <mxPoint x="220" y="160" as="targetPoint" />
            <mxPoint as="offset" />
          </mxGeometry>
        </mxCell>
        <mxCell id="fPuLMsQg-bs6Kj8-OiQH-66" value="&lt;span style=&quot;color: rgb(0, 0, 0); font-family: Helvetica; font-size: 11px; font-style: normal; font-variant-ligatures: normal; font-variant-caps: normal; font-weight: 400; letter-spacing: normal; orphans: 2; text-align: center; text-indent: 0px; text-transform: none; widows: 2; word-spacing: 0px; -webkit-text-stroke-width: 0px; white-space: nowrap; background-color: rgb(255, 255, 255); text-decoration-thickness: initial; text-decoration-style: initial; text-decoration-color: initial; display: inline !important; float: none;&quot;&gt;Solicitud _datos()&lt;/span&gt;" style="text;whiteSpace=wrap;html=1;" vertex="1" parent="1">
          <mxGeometry x="80" y="140" width="120" height="40" as="geometry" />
        </mxCell>
        <mxCell id="fPuLMsQg-bs6Kj8-OiQH-67" value="Entrega_informacion_usuario" style="html=1;verticalAlign=bottom;endArrow=block;edgeStyle=elbowEdgeStyle;elbow=vertical;curved=0;rounded=0;" edge="1" parent="1">
          <mxGeometry relative="1" as="geometry">
            <mxPoint x="70" y="200" as="sourcePoint" />
            <Array as="points">
              <mxPoint x="185" y="200" />
            </Array>
            <mxPoint x="210" y="200" as="targetPoint" />
          </mxGeometry>
        </mxCell>
        <mxCell id="fPuLMsQg-bs6Kj8-OiQH-68" value="Entrega_informacion_usuario" style="html=1;verticalAlign=bottom;endArrow=block;edgeStyle=elbowEdgeStyle;elbow=vertical;curved=0;rounded=0;" edge="1" parent="1">
          <mxGeometry relative="1" as="geometry">
            <mxPoint x="220" y="200" as="sourcePoint" />
            <Array as="points">
              <mxPoint x="335" y="200" />
            </Array>
            <mxPoint x="350" y="200" as="targetPoint" />
          </mxGeometry>
        </mxCell>
        <mxCell id="fPuLMsQg-bs6Kj8-OiQH-71" value="mensaje (creado ok)" style="html=1;verticalAlign=bottom;endArrow=open;dashed=1;endSize=8;edgeStyle=elbowEdgeStyle;elbow=vertical;curved=0;rounded=0;" edge="1" parent="1">
          <mxGeometry relative="1" as="geometry">
            <mxPoint x="219.9966666666665" y="240" as="targetPoint" />
            <Array as="points">
              <mxPoint x="310.33" y="240" />
            </Array>
            <mxPoint x="345.33" y="240" as="sourcePoint" />
          </mxGeometry>
        </mxCell>
        <mxCell id="fPuLMsQg-bs6Kj8-OiQH-72" value="" style="html=1;verticalAlign=bottom;endArrow=open;dashed=1;endSize=8;edgeStyle=elbowEdgeStyle;elbow=vertical;curved=0;rounded=0;" edge="1" parent="1">
          <mxGeometry relative="1" as="geometry">
            <mxPoint x="74.66666666666649" y="240" as="targetPoint" />
            <Array as="points">
              <mxPoint x="164.99999999999997" y="240" />
            </Array>
            <mxPoint x="199.99999999999997" y="240" as="sourcePoint" />
          </mxGeometry>
        </mxCell>
        <mxCell id="fPuLMsQg-bs6Kj8-OiQH-73" value="datos de membrecia" style="text;html=1;align=center;verticalAlign=middle;resizable=0;points=[];autosize=1;strokeColor=none;fillColor=none;" vertex="1" parent="1">
          <mxGeometry x="80" y="208" width="130" height="30" as="geometry" />
        </mxCell>
        <mxCell id="fPuLMsQg-bs6Kj8-OiQH-74" value="Actualizacion_Sistema" style="html=1;verticalAlign=bottom;endArrow=block;edgeStyle=elbowEdgeStyle;elbow=vertical;curved=0;rounded=0;" edge="1" parent="1">
          <mxGeometry x="0.1394" relative="1" as="geometry">
            <mxPoint x="270" y="520" as="sourcePoint" />
            <Array as="points">
              <mxPoint x="385" y="520" />
            </Array>
            <mxPoint x="410" y="520.4200000000001" as="targetPoint" />
            <mxPoint as="offset" />
          </mxGeometry>
        </mxCell>
        <mxCell id="fPuLMsQg-bs6Kj8-OiQH-59" value="&lt;span style=&quot;color: rgb(0, 0, 0); font-family: Helvetica; font-size: 11px; font-style: normal; font-variant-ligatures: normal; font-variant-caps: normal; font-weight: 400; letter-spacing: normal; orphans: 2; text-align: center; text-indent: 0px; text-transform: none; widows: 2; word-spacing: 0px; -webkit-text-stroke-width: 0px; white-space: nowrap; background-color: rgb(255, 255, 255); text-decoration-thickness: initial; text-decoration-style: initial; text-decoration-color: initial; display: inline !important; float: none;&quot;&gt;entregar(libro)&lt;/span&gt;" style="text;whiteSpace=wrap;html=1;" vertex="1" parent="1">
          <mxGeometry x="605" y="640" width="140" height="40" as="geometry" />
        </mxCell>
        <mxCell id="fPuLMsQg-bs6Kj8-OiQH-79" value="info(usuario)" style="html=1;verticalAlign=bottom;endArrow=block;edgeStyle=elbowEdgeStyle;elbow=vertical;curved=0;rounded=0;" edge="1" parent="1">
          <mxGeometry x="-0.0714" relative="1" as="geometry">
            <mxPoint x="595" y="599.5799999999999" as="sourcePoint" />
            <Array as="points">
              <mxPoint x="690" y="599.5799999999999" />
            </Array>
            <mxPoint x="735" y="599.5799999999999" as="targetPoint" />
            <mxPoint as="offset" />
          </mxGeometry>
        </mxCell>
        <mxCell id="fPuLMsQg-bs6Kj8-OiQH-80" style="edgeStyle=elbowEdgeStyle;rounded=0;orthogonalLoop=1;jettySize=auto;html=1;elbow=vertical;curved=0;" edge="1" parent="1">
          <mxGeometry relative="1" as="geometry">
            <mxPoint x="740.33" y="570.1733333333334" as="sourcePoint" />
            <mxPoint x="604.9966666666666" y="570.1733333333334" as="targetPoint" />
          </mxGeometry>
        </mxCell>
        <mxCell id="fPuLMsQg-bs6Kj8-OiQH-81" value="SolicitarID()" style="text;html=1;align=center;verticalAlign=middle;resizable=0;points=[];autosize=1;strokeColor=none;fillColor=none;" vertex="1" parent="1">
          <mxGeometry x="620" y="550" width="90" height="30" as="geometry" />
        </mxCell>
        <mxCell id="fPuLMsQg-bs6Kj8-OiQH-82" style="edgeStyle=elbowEdgeStyle;rounded=0;orthogonalLoop=1;jettySize=auto;html=1;elbow=vertical;curved=0;" edge="1" parent="1">
          <mxGeometry relative="1" as="geometry">
            <mxPoint x="877.6700000000001" y="650.1733333333334" as="sourcePoint" />
            <mxPoint x="742.3366666666666" y="650.1733333333334" as="targetPoint" />
          </mxGeometry>
        </mxCell>
        <mxCell id="fPuLMsQg-bs6Kj8-OiQH-83" value="entanteria_libro(libro)" style="text;html=1;align=center;verticalAlign=middle;resizable=0;points=[];autosize=1;strokeColor=none;fillColor=none;" vertex="1" parent="1">
          <mxGeometry x="740" y="630" width="140" height="30" as="geometry" />
        </mxCell>
        <mxCell id="fPuLMsQg-bs6Kj8-OiQH-84" value="actualizacion(libro,Usuario)" style="html=1;verticalAlign=bottom;endArrow=block;edgeStyle=elbowEdgeStyle;elbow=vertical;curved=0;rounded=0;" edge="1" parent="1" target="fPuLMsQg-bs6Kj8-OiQH-54">
          <mxGeometry relative="1" as="geometry">
            <mxPoint x="742.5" y="620" as="sourcePoint" />
            <Array as="points">
              <mxPoint x="797.5" y="620" />
            </Array>
            <mxPoint x="877.5" y="620" as="targetPoint" />
            <mxPoint as="offset" />
          </mxGeometry>
        </mxCell>
      </root>
    </mxGraphModel>
  </diagram>
</mxfile>
